<?xml version="1.0" standalone="no"?>
<!DOCTYPE svg PUBLIC "-//W3C//DTD SVG 20010904//EN"
 "http://www.w3.org/TR/2001/REC-SVG-20010904/DTD/svg10.dtd">
<svg version="1.0" xmlns="http://www.w3.org/2000/svg"
 width="260.000000pt" height="260.000000pt" viewBox="0 0 260.000000 260.000000"
 preserveAspectRatio="xMidYMid meet">
<metadata>
Created by potrace 1.11, written by Peter Selinger 2001-2013
</metadata>
<g transform="translate(0.000000,260.000000) scale(0.100000,-0.100000)"
fill="#000000" stroke="none">
<path d="M0 1300 l0 -1300 1300 0 1300 0 0 1300 0 1300 -1300 0 -1300 0 0
-1300z m1353 978 c24 -40 97 -173 160 -295 64 -123 124 -234 134 -248 26 -35
54 -42 288 -75 377 -54 465 -75 465 -110 0 -30 -73 -114 -287 -331 -235 -237
-217 -196 -178 -414 66 -363 81 -530 49 -542 -31 -12 -130 30 -392 163 -144
74 -273 134 -285 134 -12 0 -125 -55 -252 -122 -240 -127 -384 -192 -413 -186
-30 6 -21 195 21 454 21 121 37 238 37 260 0 38 -6 45 -211 244 -216 208 -289
291 -289 327 0 15 11 25 39 37 50 19 200 50 351 71 192 26 314 47 331 56 9 5
77 127 151 271 146 286 200 378 222 378 8 0 35 -33 59 -72z"/>
<path d="M1063 1583 c-15 -22 -18 -49 -18 -148 0 -66 3 -132 8 -147 10 -38 49
-63 76 -48 39 20 46 49 46 186 0 107 -4 135 -18 157 -24 37 -70 37 -94 0z m85
-26 c16 -33 9 -89 -14 -112 -19 -19 -25 -19 -50 -1 -23 18 -27 103 -5 130 20
24 53 16 69 -17z"/>
<path d="M1433 1583 c-15 -22 -18 -49 -18 -148 0 -139 6 -169 40 -191 23 -15
27 -15 50 0 34 22 40 52 40 191 0 99 -3 126 -18 148 -24 37 -70 37 -94 0z m93
-39 c9 -51 -6 -98 -34 -102 -47 -7 -73 50 -52 112 19 59 74 52 86 -10z"/>
</g>
</svg>
